#N canvas -8 -8 1920 997 12;
#X declare -stdlib /cyclone;
#X obj 35 141 oscparse;
#X obj 35 73 loadbang;
#X obj 35 118 netreceive -u -b;
#X msg 35 94 listen 9999;
#X obj 562 217 pak f f f;
#X obj 562 161 r HiSens_ID_1;
#X obj 592 184 r HiSens_ID_2;
#X obj 630 205 r HiSens_ID_3;
#X obj 433 268 unpack f f f;
#X obj 433 298 sel 0 1 2;
#X obj 433 322 bng 15 250 50 0 empty empty empty 17 7 0 10 -262144
-1 -1;
#X floatatom 35 327 5 0 0 0 - - -;
#X floatatom 86 328 5 0 0 0 - - -;
#X floatatom 131 328 5 0 0 0 - - -;
#X obj 35 300 unpack f f f;
#X floatatom 238 327 5 0 0 0 - - -;
#X floatatom 285 328 5 0 0 0 - - -;
#X floatatom 331 328 5 0 0 0 - - -;
#X obj 238 301 unpack f f f;
#X obj 285 373 s HiSens_ID_2;
#X obj 237 397 s HiSens_ID_1;
#X obj 331 350 s HiSens_ID_3;
#X obj 35 397 s HiSens_Val_1;
#X obj 86 374 s HiSens_Val_2;
#X obj 132 352 s HiSens_Val_3;
#X obj 433 345 s NoChange_1;
#X obj 452 322 bng 15 250 50 0 empty empty empty 17 7 0 10 -262144
-1 -1;
#X obj 452 368 s PosChange_1;
#X obj 474 322 bng 15 250 50 0 empty empty empty 17 7 0 10 -262144
-1 -1;
#X obj 476 392 s NegChange_1;
#X obj 535 297 sel 0 1 2;
#X obj 535 321 bng 15 250 50 0 empty empty empty 17 7 0 10 -262144
-1 -1;
#X obj 561 321 bng 15 250 50 0 empty empty empty 17 7 0 10 -262144
-1 -1;
#X obj 581 322 bng 15 250 50 0 empty empty empty 17 7 0 10 -262144
-1 -1;
#X obj 639 298 sel 0 1 2;
#X obj 644 324 bng 15 250 50 0 empty empty empty 17 7 0 10 -262144
-1 -1;
#X obj 665 322 bng 15 250 50 0 empty empty empty 17 7 0 10 -262144
-1 -1;
#X obj 685 323 bng 15 250 50 0 empty empty empty 17 7 0 10 -262144
-1 -1;
#X obj 535 342 s NoChange_2;
#X obj 562 371 s PosChange_2;
#X obj 583 395 s NegChange_2;
#X obj 646 346 s NoChange_3;
#X obj 667 372 s PosChange_3;
#X obj 687 396 s NegChange_3;
#X obj 35 165 list trim;
#X obj 35 274 cyclone/zl sort -1;
#X obj 35 48 declare -stdlib /cyclone;
#X obj 433 240 cyclone/zl indexmap;
#X obj 64 525 cnv 15 198 138 empty empty empty 20 12 0 14 -233017 -66577
0;
#N canvas 0 22 450 278 (subpatch) 0;
#X array \$0-Scaling 127 float 1;
#A 0 0 0.00720618 0.0145963 0.0220575 0.0295652 0.0371077 0.044678
0.0522715 0.059885 0.067516 0.0751625 0.082823 0.0904963 0.0981814
0.105877 0.113583 0.121299 0.129023 0.136755 0.144496 0.152243 0.159998
0.16776 0.175528 0.183303 0.191083 0.198869 0.20666 0.214457 0.222259
0.230066 0.237877 0.245693 0.253514 0.261339 0.269168 0.277001 0.284838
0.29268 0.300524 0.308373 0.316225 0.324081 0.33194 0.339802 0.347668
0.355537 0.363409 0.371284 0.379162 0.387043 0.394927 0.402814 0.410703
0.418596 0.426491 0.434388 0.442288 0.450191 0.458096 0.466004 0.473914
0.481826 0.489741 0.497658 0.505577 0.513499 0.521422 0.529348 0.537276
0.545206 0.553139 0.561073 0.569009 0.576948 0.584888 0.59283 0.600774
0.60872 0.616668 0.624617 0.632569 0.640522 0.648477 0.656434 0.664392
0.672353 0.680315 0.688278 0.696243 0.70421 0.712179 0.720149 0.728121
0.736094 0.744069 0.752045 0.760023 0.768003 0.775983 0.783966 0.79195
0.799935 0.807921 0.81591 0.823899 0.83189 0.839882 0.847876 0.855871
0.863867 0.871865 0.879864 0.887864 0.895866 0.903869 0.911873 0.919878
0.927885 0.935893 0.943902 0.951913 0.959924 0.967937 0.975951 0.983966
0.991983;
#X coords 0 1 126 0 200 140 1 0 0;
#X restore 63 526 graph;
#X text 129 675 exponential factor;
#X obj 38 678 nbx 8 14 -1e+037 1e+037 0 0 empty empty empty 0 -8 0
10 -228856 -1 -1 1.0183 256;
#N canvas -287 576 1920 997 Visualize_Scaling 0;
#X obj 27 102 t f f;
#X obj 27 46 trigger bang float, f 22;
#X obj 27 75 cyclone/uzi 128 0;
#X obj 32 127 cyclone/scale 0 127 0 1 1;
#X obj 22 21 inlet;
#X obj 28 159 cyclone/peek~ \$0-Scaling;
#X connect 0 0 5 0;
#X connect 0 1 3 0;
#X connect 1 0 2 0;
#X connect 1 1 3 5;
#X connect 2 2 0 0;
#X connect 3 0 5 1;
#X connect 4 0 1 0;
#X restore 38 700 pd Visualize_Scaling;
#X obj 37 533 vsl 20 128 0.1 10 1 0 empty empty empty -2 -8 0 10 -228856
-1 -1 6450 1;
#X obj 37 447 loadbang;
#X msg 37 471 1;
#X obj 953 565 sel 1;
#X msg 953 591 1;
#X msg 987 590 0;
#X obj 915 619 spigot;
#X obj 915 493 r PosChange_1;
#X obj 1117 568 sel 1;
#X msg 1117 594 1;
#X msg 1151 593 0;
#X obj 1079 622 spigot;
#X obj 1315 566 sel 1;
#X msg 1315 592 1;
#X msg 1349 591 0;
#X obj 1277 620 spigot;
#X obj 1079 495 r PosChange_2;
#X obj 1277 496 r PosChange_3;
#X obj 953 517 r Scaled_Val_1;
#X obj 39 785 s Scaled_Val_1;
#X obj 1117 518 r Scaled_Val_2;
#X obj 1315 518 r Scaled_Val_3;
#X obj 202 730 loadbang;
#X obj 953 540 > 850;
#X obj 42 808 s Scaled_Val_2;
#X obj 43 833 s Scaled_Val_3;
#X obj 1117 543 > 850;
#X obj 1315 542 > 850;
#N canvas -7 0 958 988 valueScaling_ 0;
#X obj 29 232 s sens14;
#X obj 91 231 s sens15;
#X obj 154 230 s sens16;
#X obj 216 230 s sens17;
#X obj 279 230 s sens18;
#X obj 341 230 s sens19;
#X obj 405 230 s sens20;
#X obj 468 230 s sens21;
#X obj 530 230 s sens22;
#X obj 591 230 s sens23;
#X obj 652 230 s sens24;
#X obj 714 230 s sens25;
#X obj 777 230 s sens26;
#X obj 33 126 s sens1;
#X obj 95 125 s sens2;
#X obj 158 124 s sens3;
#X obj 220 124 s sens4;
#X obj 283 124 s sens5;
#X obj 345 124 s sens6;
#X obj 409 124 s sens7;
#X obj 472 124 s sens8;
#X obj 534 124 s sens9;
#X obj 593 124 s sens10;
#X obj 656 124 s sens11;
#X obj 718 124 s sens12;
#X obj 781 124 s sens13;
#X msg 220 76 0;
#X msg 283 75 0;
#X msg 345 77 0;
#X msg 409 74 0;
#X msg 472 73 0;
#X msg 534 73 0;
#X msg 593 73 0;
#X msg 657 71 0;
#X msg 715 71 0;
#X msg 781 73 0;
#X msg 29 207 0;
#X msg 91 206 0;
#X msg 154 205 0;
#X msg 216 205 0;
#X msg 279 204 0;
#X msg 341 206 0;
#X msg 405 203 0;
#X msg 469 202 0;
#X msg 530 202 0;
#X msg 591 202 0;
#X msg 652 200 0;
#X msg 714 201 0;
#X msg 777 202 0;
#X obj 1954 1036 f;
#X obj 2015 1035 f;
#X obj 2072 1026 f;
#X obj 1961 1057 r sens23;
#X obj 2021 1057 r sens24;
#X obj 2084 1056 r sens25;
#X obj 2144 1035 f;
#X obj 2146 1057 r sens26;
#X obj 221 284 inlet;
#X obj 221 307 s ScaleTo;
#X msg 95 77 700;
#X obj 129 284 inlet;
#X obj 129 308 s Scaling;
#X msg 221 586 0 \$1;
#X msg 262 587 1 \$1;
#X msg 302 588 2 \$1;
#X msg 35 587 0 \$1;
#X msg 76 586 1 \$1;
#X msg 120 587 2 \$1;
#X obj 30 682 route 0 1 2;
#X floatatom 30 708 5 0 0 0 - - -;
#X floatatom 74 708 5 0 0 0 - - -;
#X floatatom 123 708 5 0 0 0 - - -;
#X obj 30 739 outlet;
#X obj 81 739 outlet;
#X obj 133 738 outlet;
#X obj 35 494 r HiSens_ID_1;
#X obj 76 519 r HiSens_ID_2;
#X obj 120 541 r HiSens_ID_3;
#X obj 221 489 r HiSens_Val_1;
#X obj 262 516 r HiSens_Val_2;
#X obj 302 543 r HiSens_Val_3;
#X obj 30 656 clone Scale.cl 3;
#X obj 30 380 s base1;
#X obj 90 381 s base2;
#X obj 151 381 s base3;
#X obj 206 381 s base4;
#X obj 266 378 s base5;
#X obj 328 377 s base6;
#X obj 392 376 s base7;
#X obj 455 376 s base8;
#X obj 517 375 s base9;
#X obj 578 374 s base10;
#X obj 643 374 s base11;
#X obj 709 373 s base12;
#X obj 775 372 s base13;
#X obj 29 416 s base14;
#X obj 90 415 s base15;
#X obj 152 414 s base16;
#X obj 214 413 s base17;
#X obj 279 413 s base18;
#X obj 341 411 s base19;
#X obj 407 412 s base20;
#X obj 473 411 s base21;
#X obj 544 407 s base22;
#X obj 605 406 s base23;
#X obj 665 406 s base24;
#X obj 728 405 s base25;
#X obj 791 404 s base26;
#X obj 30 330 route 0 1 2 3 4 5 6 7 8 9 10 11 12 13 14 15 16 17 18
19 20 21 22 23 24 25;
#X obj 30 284 inlet;
#X text 31 12 set Maximum Sensor Values:;
#X msg 159 76 2500;
#X msg 33 78 800;
#X obj 33 34 loadbang;
#X obj 32 167 loadbang;
#X obj 103 34 bng 15 250 50 0 empty empty empty 17 7 0 10 -262144 -1
-1;
#X obj 98 168 bng 15 250 50 0 empty empty empty 17 7 0 10 -262144 -1
-1;
#X connect 26 0 16 0;
#X connect 27 0 17 0;
#X connect 28 0 18 0;
#X connect 29 0 19 0;
#X connect 30 0 20 0;
#X connect 31 0 21 0;
#X connect 32 0 22 0;
#X connect 33 0 23 0;
#X connect 34 0 24 0;
#X connect 35 0 25 0;
#X connect 36 0 0 0;
#X connect 37 0 1 0;
#X connect 38 0 2 0;
#X connect 39 0 3 0;
#X connect 40 0 4 0;
#X connect 41 0 5 0;
#X connect 42 0 6 0;
#X connect 43 0 7 0;
#X connect 44 0 8 0;
#X connect 45 0 9 0;
#X connect 46 0 10 0;
#X connect 47 0 11 0;
#X connect 48 0 12 0;
#X connect 52 0 49 1;
#X connect 53 0 50 1;
#X connect 54 0 51 1;
#X connect 56 0 55 1;
#X connect 57 0 58 0;
#X connect 59 0 14 0;
#X connect 60 0 61 0;
#X connect 62 0 81 1;
#X connect 63 0 81 1;
#X connect 64 0 81 1;
#X connect 65 0 81 0;
#X connect 66 0 81 0;
#X connect 67 0 81 0;
#X connect 68 0 69 0;
#X connect 68 1 70 0;
#X connect 68 2 71 0;
#X connect 69 0 72 0;
#X connect 70 0 73 0;
#X connect 71 0 74 0;
#X connect 75 0 65 0;
#X connect 76 0 66 0;
#X connect 77 0 67 0;
#X connect 78 0 62 0;
#X connect 79 0 63 0;
#X connect 80 0 64 0;
#X connect 81 0 68 0;
#X connect 108 0 82 0;
#X connect 108 1 83 0;
#X connect 108 2 84 0;
#X connect 108 3 85 0;
#X connect 108 4 86 0;
#X connect 108 5 87 0;
#X connect 108 6 88 0;
#X connect 108 7 89 0;
#X connect 108 8 90 0;
#X connect 108 9 91 0;
#X connect 108 10 92 0;
#X connect 108 11 93 0;
#X connect 108 12 94 0;
#X connect 108 13 95 0;
#X connect 108 14 96 0;
#X connect 108 15 97 0;
#X connect 108 16 98 0;
#X connect 108 17 99 0;
#X connect 108 18 100 0;
#X connect 108 19 101 0;
#X connect 108 20 102 0;
#X connect 108 21 103 0;
#X connect 108 22 104 0;
#X connect 108 23 105 0;
#X connect 108 24 106 0;
#X connect 108 25 107 0;
#X connect 109 0 108 0;
#X connect 111 0 15 0;
#X connect 112 0 13 0;
#X connect 113 0 28 0;
#X connect 113 0 29 0;
#X connect 113 0 30 0;
#X connect 113 0 31 0;
#X connect 113 0 32 0;
#X connect 113 0 33 0;
#X connect 113 0 34 0;
#X connect 113 0 35 0;
#X connect 113 0 59 0;
#X connect 113 0 111 0;
#X connect 113 0 27 0;
#X connect 113 0 26 0;
#X connect 113 0 112 0;
#X connect 114 0 36 0;
#X connect 114 0 37 0;
#X connect 114 0 39 0;
#X connect 114 0 40 0;
#X connect 114 0 41 0;
#X connect 114 0 42 0;
#X connect 114 0 43 0;
#X connect 114 0 44 0;
#X connect 114 0 45 0;
#X connect 114 0 46 0;
#X connect 114 0 47 0;
#X connect 114 0 48 0;
#X connect 114 0 38 0;
#X connect 115 0 112 0;
#X connect 115 0 59 0;
#X connect 115 0 111 0;
#X connect 115 0 26 0;
#X connect 115 0 27 0;
#X connect 115 0 29 0;
#X connect 115 0 28 0;
#X connect 115 0 30 0;
#X connect 115 0 31 0;
#X connect 115 0 32 0;
#X connect 115 0 33 0;
#X connect 115 0 34 0;
#X connect 115 0 35 0;
#X connect 116 0 36 0;
#X connect 116 0 37 0;
#X connect 116 0 38 0;
#X connect 116 0 39 0;
#X connect 116 0 40 0;
#X connect 116 0 41 0;
#X connect 116 0 42 0;
#X connect 116 0 43 0;
#X connect 116 0 44 0;
#X connect 116 0 45 0;
#X connect 116 0 46 0;
#X connect 116 0 48 0;
#X restore 39 762 pd valueScaling_;
#X obj 527 267 s Change;
#X obj 915 684 onebang;
#X obj 934 640 r NoChange_1;
#X obj 935 662 r NegChange_1;
#X obj 915 640 bng 15 250 50 0 empty empty empty 17 7 0 10 -262144
-1 -1;
#X obj 915 712 bng 35 250 50 0 empty empty empty 17 7 0 10 -262144
-1 -1;
#X msg 203 751 1000;
#N canvas 344 131 1461 604 setBaseValues 0;
#X obj 444 224 inlet;
#X msg 444 286 0 \$1;
#X msg 486 287 1 \$1;
#X msg 531 287 2 \$1;
#X msg 579 287 3 \$1;
#X msg 623 287 4 \$1;
#X msg 663 286 5 \$1;
#X msg 709 287 6 \$1;
#X msg 751 288 7 \$1;
#X msg 796 288 8 \$1;
#X msg 844 288 9 \$1;
#X msg 888 288 10 \$1;
#X msg 928 287 11 \$1;
#X msg 971 287 12 \$1;
#X msg 446 315 13 \$1;
#X msg 491 316 14 \$1;
#X msg 544 317 15 \$1;
#X msg 603 313 16 \$1;
#X msg 649 312 17 \$1;
#X msg 701 311 18 \$1;
#X msg 745 312 19 \$1;
#X msg 787 313 20 \$1;
#X msg 832 313 21 \$1;
#X msg 880 313 22 \$1;
#X msg 924 313 23 \$1;
#X msg 963 312 24 \$1;
#X msg 1012 311 25 \$1;
#X obj 444 254 unpack f f f f f f f f f f f f f f f f f f f f f f f
f f f;
#X obj 26 13 inlet;
#X msg 26 75 0 \$1;
#X msg 68 76 1 \$1;
#X msg 113 76 2 \$1;
#X msg 161 76 3 \$1;
#X msg 205 76 4 \$1;
#X msg 245 75 5 \$1;
#X msg 291 76 6 \$1;
#X msg 333 77 7 \$1;
#X msg 378 77 8 \$1;
#X msg 426 77 9 \$1;
#X msg 470 77 10 \$1;
#X msg 510 76 11 \$1;
#X msg 553 76 12 \$1;
#X msg 23 110 13 \$1;
#X msg 74 110 14 \$1;
#X msg 127 111 15 \$1;
#X msg 176 110 16 \$1;
#X msg 222 109 17 \$1;
#X msg 274 108 18 \$1;
#X msg 318 109 19 \$1;
#X msg 360 110 20 \$1;
#X msg 405 110 21 \$1;
#X msg 453 110 22 \$1;
#X msg 497 110 23 \$1;
#X msg 536 109 24 \$1;
#X msg 580 109 25 \$1;
#X obj 26 47 unpack f f f f f f f f f f f f f f f f f f f f f f f f
f f;
#X text 489 225 Change;
#X text 91 12 Data;
#X obj 44 439 outlet;
#X obj 44 401 clone setBase.cl 26;
#X text 103 442 value: scaleMin (list with index);
#X connect 0 0 27 0;
#X connect 1 0 59 0;
#X connect 2 0 59 0;
#X connect 3 0 59 0;
#X connect 4 0 59 0;
#X connect 5 0 59 0;
#X connect 6 0 59 0;
#X connect 7 0 59 0;
#X connect 8 0 59 0;
#X connect 9 0 59 0;
#X connect 10 0 59 0;
#X connect 11 0 59 0;
#X connect 12 0 59 0;
#X connect 13 0 59 0;
#X connect 14 0 59 0;
#X connect 15 0 59 0;
#X connect 16 0 59 0;
#X connect 17 0 59 0;
#X connect 18 0 59 0;
#X connect 19 0 59 0;
#X connect 20 0 59 0;
#X connect 21 0 59 0;
#X connect 22 0 59 0;
#X connect 23 0 59 0;
#X connect 24 0 59 0;
#X connect 25 0 59 0;
#X connect 26 0 59 0;
#X connect 27 0 1 0;
#X connect 27 1 2 0;
#X connect 27 2 3 0;
#X connect 27 3 4 0;
#X connect 27 4 5 0;
#X connect 27 5 6 0;
#X connect 27 6 7 0;
#X connect 27 7 8 0;
#X connect 27 8 9 0;
#X connect 27 9 10 0;
#X connect 27 10 11 0;
#X connect 27 11 12 0;
#X connect 27 12 13 0;
#X connect 27 13 14 0;
#X connect 27 14 15 0;
#X connect 27 15 16 0;
#X connect 27 16 17 0;
#X connect 27 17 18 0;
#X connect 27 18 19 0;
#X connect 27 19 20 0;
#X connect 27 20 21 0;
#X connect 27 21 22 0;
#X connect 27 22 23 0;
#X connect 27 23 24 0;
#X connect 27 24 25 0;
#X connect 27 25 26 0;
#X connect 28 0 55 0;
#X connect 29 0 59 1;
#X connect 30 0 59 1;
#X connect 31 0 59 1;
#X connect 32 0 59 1;
#X connect 33 0 59 1;
#X connect 34 0 59 1;
#X connect 35 0 59 1;
#X connect 36 0 59 1;
#X connect 37 0 59 1;
#X connect 38 0 59 1;
#X connect 39 0 59 1;
#X connect 40 0 59 1;
#X connect 41 0 59 1;
#X connect 42 0 59 1;
#X connect 43 0 59 1;
#X connect 44 0 59 1;
#X connect 45 0 59 1;
#X connect 46 0 59 1;
#X connect 47 0 59 1;
#X connect 48 0 59 1;
#X connect 49 0 59 1;
#X connect 50 0 59 1;
#X connect 51 0 59 1;
#X connect 52 0 59 1;
#X connect 53 0 59 1;
#X connect 54 0 59 1;
#X connect 55 0 29 0;
#X connect 55 1 30 0;
#X connect 55 2 31 0;
#X connect 55 3 32 0;
#X connect 55 4 33 0;
#X connect 55 5 34 0;
#X connect 55 6 35 0;
#X connect 55 7 36 0;
#X connect 55 8 37 0;
#X connect 55 9 38 0;
#X connect 55 10 39 0;
#X connect 55 11 40 0;
#X connect 55 12 41 0;
#X connect 55 13 42 0;
#X connect 55 14 43 0;
#X connect 55 15 44 0;
#X connect 55 16 45 0;
#X connect 55 17 46 0;
#X connect 55 18 47 0;
#X connect 55 19 48 0;
#X connect 55 20 49 0;
#X connect 55 21 50 0;
#X connect 55 22 51 0;
#X connect 55 23 52 0;
#X connect 55 24 53 0;
#X connect 55 25 54 0;
#X connect 59 0 58 0;
#X restore 56 222 pd setBaseValues;
#X obj 1079 690 onebang;
#X obj 1079 645 bng 15 250 50 0 empty empty empty 17 7 0 10 -262144
-1 -1;
#X obj 1079 713 bng 35 250 50 0 empty empty empty 17 7 0 10 -262144
-1 -1;
#X obj 1277 686 onebang;
#X obj 1277 643 bng 15 250 50 0 empty empty empty 17 7 0 10 -262144
-1 -1;
#X obj 1277 709 bng 35 250 50 0 empty empty empty 17 7 0 10 -262144
-1 -1;
#X obj 1098 646 r NoChange_2;
#X obj 1099 668 r NegChange_2;
#X obj 1296 642 r NoChange_3;
#X obj 1297 664 r NegChange_3;
#X obj 298 139 s setBaseCounter;
#X msg 234 135 100;
#X obj 234 113 loadbang;
#X floatatom 298 112 5 0 0 0 - - -;
#X obj 234 50 tgl 15 0 empty empty empty 17 7 0 10 -262144 -1 -1 0
1;
#X obj 233 91 s metro;
#X obj 34 190 route Data Change;
#X obj 56 245 s BaseValues;
#X obj 39 734 r BaseValues;
#X obj 425 513 r Scaled_Val_1;
#X obj 427 533 r Scaled_Val_2;
#X obj 426 554 r Scaled_Val_3;
#X obj 233 69 metro 20;
#X floatatom 203 773 5 0 0 0 - - -;
#X text 341 106 setBaseCounter: initiate setBase every (x * metro)
ms \, if no change detected.;
#X text 661 676 rampDown;
#X text 648 619 rampUp;
#X obj 428 616 vsl 15 128 0 127 0 0 empty empty empty 0 -9 0 10 -262144
-1 -1 0 1;
#X obj 479 618 vsl 15 128 0 127 0 0 empty empty empty 0 -9 0 10 -262144
-1 -1 0 1;
#X obj 530 616 vsl 15 128 0 127 0 0 empty empty empty 0 -9 0 10 -262144
-1 -1 0 1;
#X obj 611 479 hsl 128 15 0 1 0 0 empty empty empty -2 -8 0 10 -262144
-1 -1 0 1;
#X msg 606 656 20000;
#X msg 605 597 10000;
#X floatatom 607 678 5 0 0 0 - - -;
#X floatatom 605 621 5 0 0 0 - - -;
#X msg 603 537 10;
#X floatatom 603 560 5 0 0 0 - - -;
#X text 647 502 logarithmic scaling;
#X floatatom 606 503 5 0 0 0 - - -;
#X text 644 560 anti jitter;
#N canvas -844 686 1920 997 AudioSliders 0;
#X obj 80 185 sig~;
#X obj 78 241 *~ 0.001;
#X obj 79 217 lop~ 10;
#X obj 79 266 pow~ 0.5;
#X floatatom 141 241 5 0 0 0 - - -;
#X obj 79 290 rampsmooth~ 20000 10000;
#X obj 78 157 gate;
#X obj 15 35 - 10;
#X obj 15 59 t f f;
#X obj 47 86 > 0;
#X obj 47 111 sel 0;
#X msg 47 157 0;
#X obj 80 314 number~;
#X obj 184 336 outlet;
#X obj 15 11 inlet;
#X obj 294 182 sig~;
#X obj 292 238 *~ 0.001;
#X obj 293 214 lop~ 10;
#X obj 293 263 pow~ 0.5;
#X floatatom 355 238 5 0 0 0 - - -;
#X obj 293 287 rampsmooth~ 20000 10000;
#X obj 292 154 gate;
#X obj 261 83 > 0;
#X obj 261 108 sel 0;
#X msg 261 154 0;
#X obj 294 311 number~;
#X obj 398 333 outlet;
#X obj 227 5 inlet;
#X obj 227 32 - 10;
#X obj 227 58 t f f;
#X obj 525 181 sig~;
#X obj 523 237 *~ 0.001;
#X obj 524 213 lop~ 10;
#X obj 524 262 pow~ 0.5;
#X floatatom 587 237 5 0 0 0 - - -;
#X obj 524 286 rampsmooth~ 20000 10000;
#X obj 523 153 gate;
#X obj 492 82 > 0;
#X obj 492 107 sel 0;
#X msg 492 153 0;
#X obj 525 310 number~;
#X obj 629 332 outlet;
#X obj 458 4 inlet;
#X obj 458 31 - 10;
#X obj 458 57 t f f;
#X obj 666 230 r rampUp;
#X obj 682 257 r rampDown;
#X obj 404 218 r rampUp;
#X obj 420 245 r rampDown;
#X obj 197 219 r rampUp;
#X obj 213 246 r rampDown;
#X obj 60 10 r antiJitter;
#X obj 588 206 r LogScaling;
#X obj 353 194 r LogScaling;
#X obj 144 193 r LogScaling;
#X obj 574 992 s LogScaling;
#X obj 641 44 s antiJitter;
#X obj 735 43 s LogScaling;
#X obj 916 39 s rampUp;
#X obj 834 41 s rampDown;
#X obj 641 15 inlet;
#X obj 735 14 inlet;
#X obj 834 12 inlet;
#X obj 916 11 inlet;
#X connect 0 0 2 0;
#X connect 1 0 3 0;
#X connect 2 0 1 0;
#X connect 3 0 5 0;
#X connect 4 0 3 1;
#X connect 5 0 12 0;
#X connect 6 0 0 0;
#X connect 7 0 8 0;
#X connect 8 0 6 1;
#X connect 8 1 9 0;
#X connect 9 0 6 0;
#X connect 9 0 10 0;
#X connect 10 0 11 0;
#X connect 11 0 0 0;
#X connect 12 1 13 0;
#X connect 14 0 7 0;
#X connect 15 0 17 0;
#X connect 16 0 18 0;
#X connect 17 0 16 0;
#X connect 18 0 20 0;
#X connect 19 0 18 1;
#X connect 20 0 25 0;
#X connect 21 0 15 0;
#X connect 22 0 21 0;
#X connect 22 0 23 0;
#X connect 23 0 24 0;
#X connect 24 0 15 0;
#X connect 25 1 26 0;
#X connect 27 0 28 0;
#X connect 28 0 29 0;
#X connect 29 0 21 1;
#X connect 29 1 22 0;
#X connect 30 0 32 0;
#X connect 31 0 33 0;
#X connect 32 0 31 0;
#X connect 33 0 35 0;
#X connect 34 0 33 1;
#X connect 35 0 40 0;
#X connect 36 0 30 0;
#X connect 37 0 36 0;
#X connect 37 0 38 0;
#X connect 38 0 39 0;
#X connect 39 0 30 0;
#X connect 40 1 41 0;
#X connect 42 0 43 0;
#X connect 43 0 44 0;
#X connect 44 0 36 1;
#X connect 44 1 37 0;
#X connect 45 0 35 1;
#X connect 46 0 35 2;
#X connect 47 0 20 1;
#X connect 48 0 20 2;
#X connect 49 0 5 1;
#X connect 50 0 5 2;
#X connect 51 0 43 1;
#X connect 51 0 28 1;
#X connect 51 0 7 1;
#X connect 52 0 34 0;
#X connect 53 0 19 0;
#X connect 54 0 4 0;
#X connect 60 0 56 0;
#X connect 61 0 57 0;
#X connect 62 0 59 0;
#X connect 63 0 58 0;
#X restore 428 589 pd AudioSliders;
#X text 1339 689 let 1 bang through \, until other type of movement
is detected;
#X obj 533 556 loadbang;
#X text 199 795 scale value from 0 to ..;
#X obj 340 46 tgl 15 0 empty empty empty 17 7 0 10 -262144 -1 -1 0
1;
#X msg 340 67 \; pd dsp \$1;
#X text 67 471 set-scaling linear;
#X connect 0 0 44 0;
#X connect 1 0 3 0;
#X connect 2 0 0 0;
#X connect 3 0 2 0;
#X connect 4 0 47 1;
#X connect 5 0 4 0;
#X connect 6 0 4 1;
#X connect 7 0 4 2;
#X connect 8 0 9 0;
#X connect 8 1 30 0;
#X connect 8 2 34 0;
#X connect 9 0 10 0;
#X connect 9 1 26 0;
#X connect 9 2 28 0;
#X connect 10 0 25 0;
#X connect 11 0 22 0;
#X connect 12 0 23 0;
#X connect 13 0 24 0;
#X connect 14 0 11 0;
#X connect 14 1 12 0;
#X connect 14 2 13 0;
#X connect 15 0 20 0;
#X connect 16 0 19 0;
#X connect 17 0 21 0;
#X connect 18 0 15 0;
#X connect 18 1 16 0;
#X connect 18 2 17 0;
#X connect 26 0 27 0;
#X connect 28 0 29 0;
#X connect 30 0 31 0;
#X connect 30 1 32 0;
#X connect 30 2 33 0;
#X connect 31 0 38 0;
#X connect 32 0 39 0;
#X connect 33 0 40 0;
#X connect 34 0 35 0;
#X connect 34 1 36 0;
#X connect 34 2 37 0;
#X connect 35 0 41 0;
#X connect 36 0 42 0;
#X connect 37 0 43 0;
#X connect 44 0 106 0;
#X connect 45 0 14 0;
#X connect 45 1 18 0;
#X connect 47 0 8 0;
#X connect 47 0 82 0;
#X connect 51 0 81 1;
#X connect 51 0 52 0;
#X connect 53 0 51 0;
#X connect 54 0 55 0;
#X connect 55 0 53 0;
#X connect 56 0 57 0;
#X connect 56 1 58 0;
#X connect 57 0 59 1;
#X connect 58 0 59 1;
#X connect 59 0 86 0;
#X connect 60 0 59 0;
#X connect 61 0 62 0;
#X connect 61 1 63 0;
#X connect 62 0 64 1;
#X connect 63 0 64 1;
#X connect 64 0 91 0;
#X connect 65 0 66 0;
#X connect 65 1 67 0;
#X connect 66 0 68 1;
#X connect 67 0 68 1;
#X connect 68 0 94 0;
#X connect 69 0 64 0;
#X connect 70 0 68 0;
#X connect 71 0 76 0;
#X connect 73 0 79 0;
#X connect 74 0 80 0;
#X connect 75 0 88 0;
#X connect 76 0 56 0;
#X connect 79 0 61 0;
#X connect 80 0 65 0;
#X connect 81 0 72 0;
#X connect 81 1 77 0;
#X connect 81 2 78 0;
#X connect 83 0 87 0;
#X connect 84 0 83 1;
#X connect 85 0 83 1;
#X connect 86 0 83 0;
#X connect 88 0 113 0;
#X connect 89 0 107 0;
#X connect 90 0 92 0;
#X connect 91 0 90 0;
#X connect 93 0 95 0;
#X connect 94 0 93 0;
#X connect 96 0 90 1;
#X connect 97 0 90 1;
#X connect 98 0 93 1;
#X connect 99 0 93 1;
#X connect 101 0 103 0;
#X connect 102 0 101 0;
#X connect 103 0 100 0;
#X connect 104 0 112 0;
#X connect 106 0 89 0;
#X connect 106 0 45 0;
#X connect 106 1 47 0;
#X connect 106 1 89 1;
#X connect 108 0 81 0;
#X connect 109 0 130 0;
#X connect 110 0 130 1;
#X connect 111 0 130 2;
#X connect 112 0 105 0;
#X connect 113 0 81 2;
#X connect 120 0 128 0;
#X connect 121 0 123 0;
#X connect 122 0 124 0;
#X connect 123 0 130 6;
#X connect 124 0 130 5;
#X connect 125 0 126 0;
#X connect 126 0 130 3;
#X connect 128 0 130 4;
#X connect 130 0 117 0;
#X connect 130 1 118 0;
#X connect 130 2 119 0;
#X connect 132 0 125 0;
#X connect 132 0 122 0;
#X connect 132 0 121 0;
#X connect 134 0 135 0;
