#N canvas 950 41 450 300 12;
#X obj 47 91 sel 0 1 2 3 4 5 6 7 8 9 10 11 12 13 14 15 16 17 18 19
20 21 22 23 24 25;
#X obj 26 22 inlet;
#X obj 50 179 r sens1;
#X obj 43 152 f;
#X obj 101 150 f;
#X obj 108 177 r sens2;
#X obj 162 150 f;
#X obj 223 149 f;
#X obj 285 149 f;
#X obj 347 148 f;
#X obj 409 147 f;
#X obj 474 147 f;
#X obj 536 145 f;
#X obj 597 145 f;
#X obj 662 145 f;
#X obj 728 144 f;
#X obj 169 177 r sens3;
#X obj 292 176 r sens5;
#X obj 229 177 r sens4;
#X obj 354 175 r sens6;
#X obj 416 174 r sens7;
#X obj 481 174 r sens8;
#X obj 543 172 r sens9;
#X obj 604 172 r sens10;
#X obj 735 171 r sens12;
#X obj 669 172 r sens11;
#X obj 787 143 f;
#X obj 857 140 f;
#X obj 919 140 f;
#X obj 981 139 f;
#X obj 1043 138 f;
#X obj 1108 138 f;
#X obj 1170 136 f;
#X obj 1236 137 f;
#X obj 798 170 r sens13;
#X obj 864 168 r sens14;
#X obj 926 167 r sens15;
#X obj 988 166 r sens16;
#X obj 1050 165 r sens17;
#X obj 1115 165 r sens18;
#X obj 1177 163 r sens19;
#X obj 1243 164 r sens20;
#X obj 1301 133 f;
#X obj 1359 131 f;
#X obj 1420 131 f;
#X obj 1481 130 f;
#X obj 1543 130 f;
#X obj 1308 160 r sens21;
#X obj 1366 158 r sens22;
#X obj 1427 158 r sens23;
#X obj 1487 158 r sens24;
#X obj 1550 157 r sens25;
#X obj 1610 130 f;
#X obj 1612 158 r sens26;
#X obj 1549 325 outlet;
#X obj 1548 41 inlet;
#X obj 1672 188 r ScaleTo;
#X obj 1549 291 clip 0 1000;
#X obj 1673 216 r Scaling;
#X text 1595 40 Hi_Sensor_Val;
#X text 72 23 Hi_Sensor_ID;
#X text 1604 326 Scaled_Value;
#X obj 26 348 sel 0 1 2 3 4 5 6 7 8 9 10 11 12 13 14 15 16 17 18 19
20 21 22 23 24 25;
#X obj 25 407 f;
#X obj 83 405 f;
#X obj 144 405 f;
#X obj 205 404 f;
#X obj 267 404 f;
#X obj 329 403 f;
#X obj 391 402 f;
#X obj 456 402 f;
#X obj 518 400 f;
#X obj 579 400 f;
#X obj 644 400 f;
#X obj 710 399 f;
#X obj 769 398 f;
#X obj 839 395 f;
#X obj 901 395 f;
#X obj 963 394 f;
#X obj 1025 393 f;
#X obj 1090 393 f;
#X obj 1152 391 f;
#X obj 1218 392 f;
#X obj 1283 388 f;
#X obj 1341 386 f;
#X obj 1402 386 f;
#X obj 1463 385 f;
#X obj 1525 385 f;
#X obj 1592 385 f;
#X obj 25 432 r base1;
#X obj 87 429 r base2;
#X obj 159 428 r base3;
#X obj 216 428 r base4;
#X obj 274 425 r base5;
#X obj 336 424 r base6;
#X obj 400 423 r base7;
#X obj 463 423 r base8;
#X obj 525 420 r base9;
#X obj 586 421 r base10;
#X obj 651 421 r base11;
#X obj 717 420 r base12;
#X obj 780 419 r base13;
#X obj 847 417 r base14;
#X obj 908 416 r base15;
#X obj 970 415 r base16;
#X obj 1032 414 r base17;
#X obj 1097 414 r base18;
#X obj 1159 412 r base19;
#X obj 1225 413 r base20;
#X obj 1290 409 r base21;
#X obj 1348 407 r base22;
#X obj 1409 407 r base23;
#X obj 1469 407 r base24;
#X obj 1532 406 r base25;
#X obj 1594 407 r base26;
#X obj 1458 264 change;
#X obj 1549 262 scale 0 1500 0 1000 1;
#X floatatom 1457 291 5 0 0 0 - - -;
#X floatatom 1666 293 5 0 0 0 - - -;
#X floatatom 47 297 5 0 0 0 - - -;
#X obj 1606 235 change;
#X connect 0 0 3 0;
#X connect 0 1 4 0;
#X connect 0 2 6 0;
#X connect 0 3 7 0;
#X connect 0 4 8 0;
#X connect 0 5 9 0;
#X connect 0 6 10 0;
#X connect 0 7 11 0;
#X connect 0 8 12 0;
#X connect 0 9 13 0;
#X connect 0 10 14 0;
#X connect 0 11 15 0;
#X connect 0 12 26 0;
#X connect 0 13 27 0;
#X connect 0 14 28 0;
#X connect 0 15 29 0;
#X connect 0 16 30 0;
#X connect 0 17 31 0;
#X connect 0 18 32 0;
#X connect 0 19 33 0;
#X connect 0 20 42 0;
#X connect 0 21 43 0;
#X connect 0 22 44 0;
#X connect 0 23 45 0;
#X connect 0 24 46 0;
#X connect 0 25 52 0;
#X connect 1 0 62 0;
#X connect 1 0 0 0;
#X connect 2 0 3 1;
#X connect 3 0 119 0;
#X connect 4 0 119 0;
#X connect 5 0 4 1;
#X connect 6 0 119 0;
#X connect 7 0 119 0;
#X connect 8 0 119 0;
#X connect 9 0 119 0;
#X connect 10 0 119 0;
#X connect 11 0 119 0;
#X connect 12 0 119 0;
#X connect 13 0 119 0;
#X connect 14 0 119 0;
#X connect 15 0 119 0;
#X connect 16 0 6 1;
#X connect 17 0 8 1;
#X connect 18 0 7 1;
#X connect 19 0 9 1;
#X connect 20 0 10 1;
#X connect 21 0 11 1;
#X connect 22 0 12 1;
#X connect 23 0 13 1;
#X connect 24 0 15 1;
#X connect 25 0 14 1;
#X connect 26 0 119 0;
#X connect 27 0 119 0;
#X connect 28 0 119 0;
#X connect 29 0 119 0;
#X connect 30 0 119 0;
#X connect 31 0 119 0;
#X connect 32 0 119 0;
#X connect 33 0 119 0;
#X connect 34 0 26 1;
#X connect 35 0 27 1;
#X connect 36 0 28 1;
#X connect 37 0 29 1;
#X connect 38 0 30 1;
#X connect 39 0 31 1;
#X connect 40 0 32 1;
#X connect 41 0 33 1;
#X connect 42 0 119 0;
#X connect 43 0 119 0;
#X connect 44 0 119 0;
#X connect 45 0 119 0;
#X connect 46 0 119 0;
#X connect 47 0 42 1;
#X connect 48 0 43 1;
#X connect 49 0 44 1;
#X connect 50 0 45 1;
#X connect 51 0 46 1;
#X connect 52 0 119 0;
#X connect 53 0 52 1;
#X connect 55 0 116 0;
#X connect 56 0 57 2;
#X connect 56 0 116 4;
#X connect 57 0 54 0;
#X connect 58 0 116 5;
#X connect 62 0 63 0;
#X connect 62 1 64 0;
#X connect 62 2 65 0;
#X connect 62 3 66 0;
#X connect 62 4 67 0;
#X connect 62 5 68 0;
#X connect 62 6 69 0;
#X connect 62 7 70 0;
#X connect 62 8 71 0;
#X connect 62 9 72 0;
#X connect 62 10 73 0;
#X connect 62 11 74 0;
#X connect 62 12 75 0;
#X connect 62 13 76 0;
#X connect 62 14 77 0;
#X connect 62 15 78 0;
#X connect 62 16 79 0;
#X connect 62 17 80 0;
#X connect 62 18 81 0;
#X connect 62 19 82 0;
#X connect 62 20 83 0;
#X connect 62 21 84 0;
#X connect 62 22 85 0;
#X connect 62 23 86 0;
#X connect 62 24 87 0;
#X connect 62 25 88 0;
#X connect 63 0 115 0;
#X connect 64 0 115 0;
#X connect 65 0 115 0;
#X connect 66 0 115 0;
#X connect 67 0 115 0;
#X connect 68 0 115 0;
#X connect 69 0 115 0;
#X connect 70 0 115 0;
#X connect 71 0 115 0;
#X connect 72 0 115 0;
#X connect 73 0 115 0;
#X connect 74 0 115 0;
#X connect 75 0 115 0;
#X connect 76 0 115 0;
#X connect 77 0 115 0;
#X connect 78 0 115 0;
#X connect 79 0 115 0;
#X connect 80 0 115 0;
#X connect 81 0 115 0;
#X connect 82 0 115 0;
#X connect 83 0 115 0;
#X connect 84 0 115 0;
#X connect 85 0 115 0;
#X connect 86 0 115 0;
#X connect 87 0 115 0;
#X connect 88 0 115 0;
#X connect 89 0 63 1;
#X connect 90 0 64 1;
#X connect 91 0 65 1;
#X connect 92 0 66 1;
#X connect 93 0 67 1;
#X connect 94 0 68 1;
#X connect 95 0 69 1;
#X connect 96 0 70 1;
#X connect 97 0 71 1;
#X connect 98 0 72 1;
#X connect 99 0 73 1;
#X connect 100 0 74 1;
#X connect 101 0 75 1;
#X connect 102 0 76 1;
#X connect 103 0 77 1;
#X connect 104 0 78 1;
#X connect 105 0 79 1;
#X connect 106 0 80 1;
#X connect 107 0 81 1;
#X connect 108 0 82 1;
#X connect 109 0 83 1;
#X connect 110 0 84 1;
#X connect 111 0 85 1;
#X connect 112 0 86 1;
#X connect 113 0 87 1;
#X connect 114 0 88 1;
#X connect 115 0 116 1;
#X connect 115 0 117 0;
#X connect 116 0 57 0;
#X connect 116 0 118 0;
#X connect 119 0 120 0;
#X connect 120 0 116 2;
